<svg width="85" height="51" viewBox="0 0 85 51" fill="none" xmlns="http://www.w3.org/2000/svg">
<path d="M38.4036 26.72C41.7964 14.0502 57.563 7.00282 57.563 7.00282C57.563 7.00282 65.0072 22.7284 59.2556 34.5163C54.7246 43.8027 47.1272 36.9066 47.1272 36.9066C47.1272 36.9066 35.7308 36.7012 38.4036 26.72Z" stroke="#2FA9B1"/>
<path d="M26.8558 34.5158C21.1042 22.7279 28.3799 7.0653 28.3799 7.0653C28.3799 7.0653 44.315 14.0497 47.7078 26.7195C50.3806 36.7007 40.3949 35.7844 40.3949 35.7844C40.3949 35.7844 31.3868 43.8022 26.8558 34.5158Z" stroke="#2FA9B1"/>
<path d="M59.978 43.6523C72.7577 40.7985 81.4738 27.844 81.4738 27.844C81.4738 27.844 66.9617 21.8406 54.7711 26.621C45.1674 30.3869 38.5518 40.9665 38.5518 40.9665C38.5518 40.9665 49.9103 45.9005 59.978 43.6523Z" stroke="#2FA9B1"/>
<path d="M24.0718 25.0216C36.8515 27.8754 45.5675 40.8298 45.5675 40.8298C45.5675 40.8298 31.0555 46.8332 18.8648 42.0529C9.26112 38.2869 2.64554 27.7073 2.64554 27.7073C2.64554 27.7073 14.0041 22.7734 24.0718 25.0216Z" stroke="#2FA9B1"/>
<path d="M21.2259 36.0541C11.8206 26.9435 11.1576 11.3439 11.1576 11.3439C11.1576 11.3439 26.668 13.8077 34.5644 24.2532C40.7852 32.4821 40.8981 44.9594 40.8981 44.9594C40.8981 44.9594 28.6354 43.2314 21.2259 36.0541Z" fill="#2FA9B1" stroke="white"/>
<path d="M49.0173 24.3937C56.9137 13.9482 72.3163 11.389 72.3163 11.389C72.3163 11.389 71.7611 27.084 62.3558 36.1946C54.9463 43.3719 42.5758 45.0045 42.5758 45.0045C42.5758 45.0045 42.7965 32.6226 49.0173 24.3937Z" fill="#2FA9B1" stroke="white"/>
<path d="M31.5087 26.1784C30.2496 13.1227 42.5497 1 42.5497 1C42.5497 1 55.0297 13.1227 53.7705 26.1784C52.7786 36.4635 42.5497 45.8831 42.5497 45.8831C42.5497 45.8831 32.5006 36.4635 31.5087 26.1784Z" fill="#2FA9B1" stroke="white"/>
</svg>
