<svg width="20" height="20" viewBox="0 0 20 20" fill="none" xmlns="http://www.w3.org/2000/svg">
<path d="M15.1117 9.16669C15.5958 13.6459 17.5 15 17.5 15H2.5C2.5 15 5 13.2225 5 7.00002C5 5.58585 5.52667 4.22919 6.46417 3.22919C7.4025 2.22919 8.675 1.66669 10 1.66669C10.2808 1.66669 10.56 1.69169 10.8333 1.74169" stroke="#868686" stroke-width="2" stroke-linecap="round" stroke-linejoin="round"/>
<path d="M15.8335 6.66669C16.4965 6.66669 17.1324 6.40329 17.6013 5.93445C18.0701 5.46561 18.3335 4.82973 18.3335 4.16669C18.3335 3.50365 18.0701 2.86776 17.6013 2.39892C17.1324 1.93008 16.4965 1.66669 15.8335 1.66669C15.1705 1.66669 14.5346 1.93008 14.0657 2.39892C13.5969 2.86776 13.3335 3.50365 13.3335 4.16669C13.3335 4.82973 13.5969 5.46561 14.0657 5.93445C14.5346 6.40329 15.1705 6.66669 15.8335 6.66669Z" fill="#F63E76" stroke="#F63E76" stroke-linecap="round" stroke-linejoin="round"/>
<path d="M11.4414 17.5C11.2951 17.7528 11.0849 17.9626 10.8318 18.1085C10.5788 18.2544 10.2919 18.3312 9.99977 18.3312C9.70769 18.3312 9.42074 18.2544 9.16771 18.1085C8.91467 17.9626 8.70445 17.7528 8.55811 17.5" stroke="#868686" stroke-width="2" stroke-linecap="round" stroke-linejoin="round"/>
</svg>
