<svg width="13" height="16" viewBox="0 0 13 16" fill="none" xmlns="http://www.w3.org/2000/svg">
<path d="M9.12074 0.736816C8.60043 0.739346 8.10216 0.947158 7.73424 1.31507C7.36633 1.68299 7.15852 2.18126 7.15599 2.70157C7.15868 3.22176 7.36657 3.71987 7.73447 4.08765C8.10237 4.45543 8.60055 4.66315 9.12074 4.66568C10.2003 4.66568 11.1047 3.77856 11.1047 2.70093C11.1047 1.6233 10.2003 0.736816 9.12074 0.736816ZM9.12074 2.01971C9.50625 2.01971 9.82184 2.31798 9.82184 2.70157C9.82184 3.08451 9.50625 3.38279 9.12074 3.38279C8.73715 3.38279 8.43888 3.08772 8.43888 2.70093C8.43785 2.61113 8.45478 2.52203 8.48869 2.43887C8.5226 2.35571 8.5728 2.28018 8.63633 2.2167C8.69986 2.15323 8.77545 2.10311 8.85864 2.06928C8.94183 2.03545 9.03094 2.01859 9.12074 2.01971ZM4.44972 3.30261C4.1287 3.34041 3.83099 3.48926 3.60814 3.7234L1.44326 6.06853L2.40543 6.95116L4.55043 4.60539C4.57288 4.58293 4.60303 4.56818 4.63061 4.5855L5.65308 5.26736L4.14952 7.35206C3.92189 7.67336 3.81514 8.06477 3.84812 8.45715C3.8811 8.84953 4.0517 9.21763 4.32977 9.49642L6.59472 11.762L4.73067 15.4901H6.17393L7.75766 12.3432C7.87851 12.1019 7.92031 11.8288 7.87713 11.5625C7.83395 11.2961 7.70799 11.0502 7.51712 10.8595L5.25153 8.59455C5.18825 8.52838 5.14973 8.44241 5.14249 8.35114C5.13524 8.25987 5.15971 8.1689 5.21176 8.09358L6.71531 5.98835L7.23617 6.3296L8.25863 7.87292C8.49661 8.22892 8.89238 8.43418 9.32087 8.43418H12.1875V7.15129H9.32087L8.23875 5.50726L8.15857 5.40719L8.05786 5.32701L5.35224 3.52326C5.08777 3.344 4.76772 3.26569 4.45036 3.30261H4.44972ZM3.8891 10.0577L2.94553 11H0V12.2829H2.94681C3.28485 12.2829 3.60814 12.145 3.84868 11.9018L4.79097 10.9602L3.8891 10.0577Z" fill="white"/>
</svg>
