<svg width="18" height="18" viewBox="0 0 18 18" fill="none" xmlns="http://www.w3.org/2000/svg">
<path d="M17.4395 6.1085L12.2391 5.31706L9.91439 0.381789C9.8509 0.246664 9.74644 0.137277 9.6174 0.0707875C9.29379 -0.0965097 8.90053 0.0429047 8.73872 0.381789L6.414 5.31706L1.2136 6.1085C1.07023 6.12995 0.93914 6.20073 0.838777 6.30797C0.717445 6.43856 0.650585 6.61426 0.65289 6.79644C0.655194 6.97863 0.726474 7.1524 0.851067 7.27958L4.61363 11.121L3.7247 16.5453C3.70386 16.6715 3.71719 16.8012 3.76319 16.9199C3.8092 17.0385 3.88602 17.1413 3.98497 17.2166C4.08391 17.2918 4.20101 17.3365 4.32299 17.3456C4.44496 17.3547 4.56694 17.3279 4.67507 17.2681L9.32656 14.7072L13.978 17.2681C14.105 17.3389 14.2525 17.3625 14.3938 17.3367C14.7502 17.2724 14.9899 16.9185 14.9284 16.5453L14.0395 11.121L17.802 7.27958C17.9045 7.17449 17.972 7.03722 17.9925 6.88708C18.0478 6.51173 17.798 6.16427 17.4395 6.1085ZM12.4562 10.5805L13.1956 15.0911L9.32656 12.9634L5.45749 15.0932L6.19689 10.5826L3.06723 7.38683L7.39305 6.72836L9.32656 2.62529L11.2601 6.72836L15.5859 7.38683L12.4562 10.5805Z" fill="black"/>
</svg>
