<svg width="673" height="648" viewBox="0 0 673 648" fill="none" xmlns="http://www.w3.org/2000/svg">
<path d="M213.747 175.04C194.892 123.229 188.022 67.0174 193.88 12.4822C194.296 8.60921 196.88 5.30852 200.541 3.97565C204.203 2.64278 208.302 3.51091 211.112 6.20958C242.299 36.1916 267.649 71.2579 286.457 110.438C288.899 115.523 286.756 121.625 281.672 124.065C276.588 126.508 270.485 124.366 268.045 119.279C253.542 89.071 234.923 61.4562 212.547 36.9355C208.935 126.509 241.253 215.308 301.592 281.605C302.935 249.278 299.656 216.97 291.795 185.285C290.437 179.81 293.773 174.271 299.248 172.912C304.724 171.552 310.262 174.89 311.619 180.365C321.866 221.658 324.766 263.95 320.242 306.065C320.194 306.509 320.111 306.942 320.008 307.369C321.674 311.802 323.356 316.229 325.058 320.647C328.957 288.528 337.958 256.856 351.69 227.406C371.043 185.9 399.806 148.746 434.87 119.961C437.908 117.468 442.105 116.938 445.666 118.599C449.227 120.259 451.52 123.816 451.562 127.745C452.053 173.112 442.082 219.029 422.729 260.535C404 300.702 376.458 336.792 342.92 365.167C353.231 389.856 364.113 414.282 375.547 438.419C379.833 404.169 389.492 370.413 404.14 338.998C425.027 294.201 456.071 254.103 493.915 223.035C496.952 220.543 501.15 220.013 504.711 221.674C508.271 223.334 510.565 226.891 510.607 230.82C511.136 279.782 500.376 329.339 479.488 374.137C460.08 415.762 431.898 453.327 397.643 483.362C409.871 507.331 422.657 530.984 435.979 554.29C439.661 525.219 447.872 496.572 460.306 469.905C478.122 431.696 504.601 397.493 536.882 370.994C539.918 368.501 544.116 367.971 547.677 369.632C551.239 371.293 553.532 374.849 553.574 378.778C554.026 420.542 544.847 462.814 527.032 501.023C510.761 535.917 487.249 567.45 458.708 592.846C465.392 603.848 472.19 614.771 479.117 625.603C482.156 630.354 480.768 636.67 476.016 639.709C472.958 641.666 469.251 641.788 466.188 640.359C464.491 639.568 462.992 638.302 461.909 636.608C454.772 625.449 447.77 614.192 440.888 602.853C399.627 603.067 357.925 593.913 320.187 576.314C281.981 558.496 247.781 532.015 221.283 499.732C218.79 496.695 218.26 492.497 219.921 488.935C221.582 485.373 225.138 483.08 229.066 483.038C270.827 482.587 313.094 491.766 351.301 509.584C370.926 518.736 389.483 530.189 406.494 543.526C397.165 526.662 388.111 509.627 379.341 492.431C335.286 492.311 290.848 482.367 250.567 463.582C209.066 444.228 171.915 415.462 143.133 380.394C140.64 377.357 140.11 373.159 141.771 369.597C143.432 366.035 146.988 363.743 150.916 363.701C196.278 363.21 242.192 373.181 283.694 392.535C308.22 403.972 331.224 418.699 351.882 436.068C342.891 416.738 334.249 397.228 325.967 377.552C295.318 377.379 264.879 372.571 235.41 363.225C234.98 363.089 234.566 362.927 234.168 362.741C229.587 360.605 227.193 355.349 228.761 350.402C230.466 345.025 236.207 342.048 241.583 343.753C263.089 350.573 285.146 354.81 307.41 356.41C258.636 306.218 191.885 275.089 122.087 269.986C137.381 285.762 154.504 299.745 173.205 311.713C177.956 314.753 179.342 321.07 176.302 325.82C173.262 330.572 166.949 331.948 162.195 328.919C135.066 311.555 111.029 290.227 90.7546 265.525C88.2615 262.489 87.7319 258.291 89.3927 254.729C91.0536 251.167 94.6096 248.874 98.5382 248.832C143.9 248.341 189.813 258.313 231.316 277.667C258.169 290.19 283.197 306.659 305.319 326.219C302.962 320.078 300.632 313.925 298.344 307.755C261.039 270.542 231.853 224.791 213.747 175.04ZM455.025 568.338C499.469 524.381 527.204 464.896 532.306 402.593C487.864 446.549 460.128 506.033 455.025 568.338ZM252.875 504.307C296.829 548.754 356.308 576.492 418.606 581.595C374.653 537.148 315.173 509.409 252.875 504.307ZM394.084 458.929C449.965 405.386 484.447 331.434 489.54 254.205C433.659 307.75 399.177 381.701 394.084 458.929ZM174.487 384.858C223.256 435.04 289.982 466.157 359.768 471.263C310.999 421.08 244.274 389.963 174.487 384.858ZM344.008 336.618C394.182 287.85 425.298 221.109 430.406 151.322C380.234 200.094 349.113 266.833 344.008 336.618Z" fill="black"/>
</svg>
