<svg width="50" height="50" viewBox="0 0 50 50" fill="none" xmlns="http://www.w3.org/2000/svg">
<path d="M40.2185 23.7736L31.2733 6.84059C31.0617 6.44 30.6487 6.19039 30.1957 6.18903C30.1944 6.18903 30.1933 6.18903 30.1921 6.18903C29.7404 6.18903 29.3276 6.436 29.1143 6.83434L20.918 22.1332C20.7826 22.3857 20.8072 22.6941 20.9811 22.9219L22.9873 25.553C23.2093 25.8441 23.5463 26.0192 23.9121 26.0335C24.2768 26.0486 24.6275 25.8994 24.8714 25.6264L28.0434 22.0768L34.2091 29.3557C34.4393 29.6275 34.7756 29.7851 35.1316 29.7881C35.1352 29.7881 35.1387 29.7881 35.1422 29.7881C35.4944 29.7881 35.829 29.6367 36.0614 29.3715L39.7157 25.2048C39.7367 25.1808 39.7561 25.1555 39.7739 25.129L40.1799 24.5215C40.3291 24.2982 40.3439 24.0111 40.2185 23.7736ZM38.5845 24.2765L35.1453 28.1981L28.9812 20.9211C28.7525 20.6511 28.4184 20.4935 28.0644 20.4888C28.0591 20.4887 28.0537 20.4887 28.0482 20.4887C27.7003 20.4887 27.3687 20.6368 27.1365 20.8967L23.9743 24.4353L22.4294 22.4092L30.1907 7.92242L38.7217 24.0714L38.5845 24.2765Z" fill="#EF476F"/>
<path d="M49.8569 42.0173L44.115 31.1485C43.9264 30.7914 43.4841 30.6548 43.1268 30.8435C42.7697 31.0322 42.6332 31.4746 42.8219 31.8317L48.3779 42.3488H28.8992C28.8762 42.2353 20.4123 26.1743 20.4123 26.1743L21.6703 23.8261L22.9872 25.5532C23.2092 25.8443 23.5463 26.0194 23.912 26.0336C24.2767 26.0488 24.6274 25.8996 24.8713 25.6266L28.0433 22.077L34.209 29.3559C34.4392 29.6277 34.7755 29.7853 35.1315 29.7883C35.1351 29.7883 35.1386 29.7883 35.1421 29.7883C35.4943 29.7883 35.8289 29.6369 36.0614 29.3717C36.0639 29.369 36.0663 29.3662 36.0686 29.3633L39.4298 25.4112L40.7961 27.9975C40.9848 28.3546 41.4271 28.4913 41.7843 28.3025C42.1414 28.1138 42.2779 27.6714 42.0893 27.3143L31.2731 6.84028C31.0614 6.4397 30.6485 6.19009 30.1955 6.18872H30.1919C29.7402 6.18872 29.3274 6.43569 29.1141 6.83413L21.4353 21.1677L20.918 22.1333C20.918 22.1334 20.9179 22.1334 20.9179 22.1335L19.5886 24.6148L15.6363 17.1336C15.4775 16.8332 15.2056 16.6176 14.8883 16.5281C14.7824 16.4982 14.6716 16.4823 14.5582 16.482C14.557 16.482 14.5559 16.482 14.5547 16.482C14.5395 16.482 14.5246 16.483 14.5096 16.4835C14.4972 16.4839 14.4847 16.484 14.4724 16.4848C14.4611 16.4856 14.4501 16.4871 14.439 16.4881C14.4224 16.4897 14.4058 16.491 14.3894 16.4932C14.3746 16.4952 14.3601 16.4981 14.3455 16.5006C14.3333 16.5028 14.3209 16.5044 14.3088 16.507C13.957 16.5789 13.6508 16.8029 13.4769 17.1275L10.8001 22.1242L6.29795 30.5281C6.29717 30.5295 6.29658 30.5311 6.2958 30.5326L0.146386 42.0112C-0.0584968 42.3937 -0.0477546 42.8444 0.175097 43.2168C0.398046 43.5891 0.790234 43.8114 1.22422 43.8114H48.7757C49.2082 43.8114 49.5997 43.5902 49.8229 43.2198C50.0464 42.8494 50.059 42.3999 49.8569 42.0173ZM22.6508 21.9959L30.1906 7.92261L38.6938 24.019L35.1424 28.1948L28.9811 20.9211C28.7523 20.6511 28.4182 20.4935 28.0644 20.4889C28.0589 20.4888 28.0535 20.4888 28.0481 20.4888C27.7002 20.4888 27.3686 20.637 27.1364 20.8968L23.9742 24.4354L22.4293 22.4093L22.6508 21.9959ZM1.6249 42.3486L7.1626 32.0117L9.29756 33.8C9.52783 33.9928 9.80635 34.0875 10.0833 34.0875C10.4191 34.0875 10.7526 33.9483 10.9951 33.6766L13.4438 30.9321L15.021 32.4969C15.3077 32.7814 15.7708 32.7795 16.0553 32.4929C16.3397 32.2062 16.3379 31.7431 16.0513 31.4586L14.2945 29.7157C14.0574 29.4805 13.7311 29.352 13.3961 29.3615C13.0622 29.3716 12.7432 29.5204 12.5209 29.7697L10.0586 32.5293L7.86816 30.6947L14.5534 18.2157L23.1802 34.5458L21.0976 36.4652L19.1924 34.5749C18.9058 34.2904 18.4427 34.2922 18.1581 34.579C17.8736 34.8656 17.8755 35.3287 18.1622 35.6131L20.2302 37.665C20.4687 37.9016 20.7798 38.0206 21.0914 38.0206C21.388 38.0206 21.6851 37.9127 21.9201 37.696L23.8873 35.883L27.303 42.3486H1.6249V42.3486Z" fill="#EF476F"/>
</svg>
